<svg id="Layer_1" data-name="Layer 1" xmlns="http://www.w3.org/2000/svg" viewBox="0 0 815.44 233.23"><defs><style>.cls-1{fill:#4899cc;}.cls-2{fill:#b2b2b2;}.cls-3{fill:#0072b9;}.cls-4{fill:#0091c8;}.cls-5{fill:#4fc29f;}.cls-6{fill:grays;}.cls-7{fill:silver;}.cls-8{fill:#8c8c8c;}.cls-9{fill:#bcbcbc;}.cls-10{fill:#a3a3a3;}.cls-11{fill:#cfcfcf;}.cls-12{fill:#e1e1e1;}.cls-13{fill:#fefefe;}</style></defs><path class="cls-1" d="M361.13,538.7c1,1.28.3,2.76.46,4.13a1.19,1.19,0,0,0-.46-.06Z" transform="translate(-84.71 -415.99)"/><path class="cls-2" d="M119.45,607.62c6.75-.85,13.19-2.85,19.61-5a186.82,186.82,0,0,0,28.3-11.59c14.12-7.44,26-17.43,34.09-31.43a72.42,72.42,0,0,0,9-26.63,91.35,91.35,0,0,0,.55-18.47A126.12,126.12,0,0,0,205.87,487a187.81,187.81,0,0,0-11.42-29.69c-3.76-7.74-7.92-15.29-11.89-22.93-.93-1.78-.86-1.87,1.08-2.14q18.63-2.66,37.26-5.32,19.33-2.75,38.68-5.44c8.32-1.17,16.64-2.35,24.95-3.59,1.09-.16,1.42,0,1.45,1.15.09,4.93.52,9.85.25,14.77a63,63,0,0,1-1,10.25,2.11,2.11,0,0,1-1.91,1.91q-11.55,2-23.08,4.08c-8.45,1.51-16.89,3.08-25.34,4.56-1,.17-1.16.64-1,1.44.3,1.63.67,3.25.92,4.88.14.92.44,1.1,1.39.93,7.16-1.31,14.34-2.52,21.51-3.79q12.5-2.21,25-4.45c1.31-.23,1.9.06,1.48,1.53-.2.73-.17,1.52-.3,2.28-.53,3.1-.54,3.09-3.66,3.64-14,2.49-28,5-42,7.43-1.32.23-1.53.63-1.25,1.84a37.51,37.51,0,0,1,.73,4.73c.1.92.52,1,1.31.88l32.34-5.79c3.15-.56,6.31-1,9.44-1.67,1.13-.23,1.22.21,1.12,1.07s-.21,2-.35,3a3.13,3.13,0,0,1-2.78,2.82c-3.78.7-7.57,1.37-11.35,2.07-7.4,1.36-14.79,2.75-22.18,4.1-1.51.27-3,.42-4.58.59-1,.1-1.52.33-1.23,1.55a31.23,31.23,0,0,1,.73,4.73c.09,1.06.53,1.29,1.49,1.12l32.87-5.84c1.33-.24,2.66-.44,4.15-.68a71.79,71.79,0,0,1-3.37,13.32,194.54,194.54,0,0,1-24.29,48,108,108,0,0,1-15.38,17.23c-4.43,4.13-8.72,8.39-13.4,12.26a114.1,114.1,0,0,1-27.75,16.51,234.88,234.88,0,0,1-41.83,13.83,156.6,156.6,0,0,1-22.61,3.53c-3.57.28-7.12.27-10.68.26-.12-.07-.17-.13-.12-.2A.17.17,0,0,1,119.45,607.62Z" transform="translate(-84.71 -415.99)"/><path class="cls-3" d="M123.63,616.12H148.7c4.52,0,9.05-.26,13.54.07s8.24,3.11,12.4,4.6a107.31,107.31,0,0,0,130.19-49.38,110.87,110.87,0,0,0,7.07-92c-.63-1.7-.64-1.7.53-3.3,20.13,36.24,21.24,100.27-27.67,143.36S165.33,656.69,123.63,616.12Z" transform="translate(-84.71 -415.99)"/><path class="cls-4" d="M84.79,545.1c0-3.51.06-7,0-10.52,0-1.27.36-1.57,1.59-1.56,11.17,0,22.34,0,33.51,0,1.64,0,2.06-.43,2-2.06-.06-11.11,0-22.22,0-33.33,0-1.41.37-1.76,1.76-1.75q10.42.12,20.86,0c1.35,0,1.67.38,1.66,1.69,0,11.23,0,22.46,0,33.68,0,1.44.42,1.76,1.79,1.77,11.23,0,22.46.19,33.69.22,1.44,0,1.76.45,1.75,1.81q-.12,10.17,0,20.32c0,1.45-.34,1.89-1.84,1.89-11.17,0-22.34.19-33.51.23-1.46,0-1.89.33-1.88,1.85.06,11.1,0,22.21,0,33.32,0,1.43-.41,1.77-1.79,1.74-6.71-.12-13.43-.13-20.14-.19-2.32,0-2.32,0-2.33-2.44-.06-10.93-.16-21.86-.16-32.79,0-1.43-.42-1.76-1.79-1.75-11.11,0-22.22,0-33.33,0-1.45,0-1.94-.34-1.89-1.85.11-3.44,0-6.89,0-10.33Z" transform="translate(-84.71 -415.99)"/><path class="cls-5" d="M170,416.47a109.3,109.3,0,0,0-65.64,83.86A117.52,117.52,0,0,0,103.08,514c0,.93-.2,1.38-1.28,1.37-4.39-.06-8.79,0-13.18,0-.87,0-1.25-.1-1.11-1.18a119.65,119.65,0,0,1,81.27-97.93,2.41,2.41,0,0,1,.53-.07C169.68,416,170.06,415.8,170,416.47Z" transform="translate(-84.71 -415.99)"/><path class="cls-3" d="M602.3,547.34c-4.28.28-7.29-1.78-9.1-6.27-3.88-9.57-8-19-12.12-28.51-.41-.95-.5-2.49-1.9-2.33-1.21.13-1,1.55-1.26,2.5-2.3,10.68-4.64,21.35-6.85,32-.33,1.59-.88,2.11-2.46,2a76.21,76.21,0,0,0-8.14,0c-2,.12-2-.72-1.72-2.24q3.68-17,7.27-34c.64-3,1.21-6,1.89-8.95,1.73-7.63,11.84-11.46,18.32-7a8.83,8.83,0,0,1,2.9,4.07q6.25,14.73,12.55,29.43c.35.81.46,2.13,1.58,2s1-1.37,1.23-2.25c2.22-10.52,4.49-21,6.63-31.57.42-2.05,1.1-3.07,3.42-2.83a46.49,46.49,0,0,0,7.37,0c1.88-.11,2.1.6,1.74,2.23q-3.95,18.12-7.78,36.26c-.41,1.9-.82,3.8-1.21,5.71C613.26,544.57,609.83,547.35,602.3,547.34Z" transform="translate(-84.71 -415.99)"/><path class="cls-5" d="M824.69,529.43l13.51,17.35c-5.31,0-10.1,0-14.89,0a2.38,2.38,0,0,1-2-1.31c-3.41-4.86-6.84-9.7-10.21-14.59a13.08,13.08,0,0,1-1.66-3.4,5.94,5.94,0,0,1,4.59-7.68c3-.67,6.09-.4,9.13-.42a6.42,6.42,0,0,0,6.57-4.59,18,18,0,0,0,1.32-6.69c-.06-1.93-.87-3.31-2.9-3.57a89.93,89.93,0,0,0-16.49-.17c-2.46.14-3,2.27-3.38,4.19-2,9.11-3.85,18.22-5.78,27.33-.63,3-1.38,5.94-1.89,8.94-.25,1.45-.79,2-2.3,2-3.22-.1-6.45-.09-9.67,0-1.55,0-2.11-.29-1.74-2,3.1-14.31,6.09-28.65,9.19-43,1.22-5.66,3.59-8.07,9.1-8.18,9.91-.2,19.84-.52,29.75.19,5.53.4,9,3.63,9.75,9a32.45,32.45,0,0,1-2.18,17.44c-2.53,6-7.21,9-13.71,9.11C827.61,529.45,826.45,529.43,824.69,529.43Z" transform="translate(-84.71 -415.99)"/><path class="cls-5" d="M869.89,546.79c-5.51,0-11,0-16.53,0s-8.05-3-6.89-8.51q3.76-17.88,7.57-35.75c1.45-6.78,4.13-8.95,11.12-9,10.93,0,21.87,0,32.8-.05,2.3,0,2.59.61,1.77,2.61-2.15,5.23-5.73,7.8-11.56,7.88-5.6.07-11.19,0-16.79,0-3.15,0-4.07.74-4.74,3.78-.5,2.22-1.91,5.17-1,6.52,1,1.52,4.23.47,6.48.49,6.78.07,13.57.1,20.35,0,2.17,0,3.23.25,2.33,2.75a19.42,19.42,0,0,0-1,5c-.18,2-1.24,2.39-3,2.37-8.22-.08-16.44,0-24.67-.09-2.22,0-3.49.37-3.64,2.87a36.31,36.31,0,0,1-1,5c-.59,2.9,0,3.77,3,3.85,4.83.12,9.66,0,14.5,0,3.64,0,7.29,0,10.93,0,1.4,0,2,.23,1.58,1.87-.75,2.68-.47,6.25-2.15,7.91s-5.31.44-8.08.51C877.36,546.86,873.63,546.79,869.89,546.79Z" transform="translate(-84.71 -415.99)"/><path class="cls-3" d="M651.63,546.77c-3.59-.16-8,.24-12.4-.34-8.93-1.18-14.2-6.38-14.8-15.3a51.68,51.68,0,0,1,4.67-25c3.52-7.77,10-11.54,18.27-12.19,10.5-.82,21-.21,31.54-.39,1.25,0,1.63.32,1.34,1.62-1.27,5.79-5,8.85-11,9-5.59.14-11.19-.29-16.78.34-5.26.58-9,3.11-11,8.12-2.1,5.32-3.57,10.79-3.07,16.57.34,3.77,2.17,5.6,5.83,6.38,4,.85,8.11.55,12.17.47,2.09-.05,3.11-1.45,3.52-3.39.79-3.73,1.68-7.44,2.37-11.18.25-1.38.8-1.79,2.15-1.76,3.39.09,6.79.09,10.18,0,1.45,0,1.68.4,1.36,1.77-1.33,5.86-2.48,11.76-3.83,17.61-1.23,5.33-4,7.53-9.56,7.63C659.23,546.83,655.84,546.77,651.63,546.77Z" transform="translate(-84.71 -415.99)"/><path class="cls-6" d="M143.67,472.46c5.07-4.76,10.59-9,15.91-13.44,4.19-3.51,8.13-7.3,12.52-10.57,1.37-1,2.06-.87,3.1.43,12.51,15.69,20.6,33.3,23.46,53.25A162.66,162.66,0,0,1,200.29,532a68.28,68.28,0,0,1-3.11,19.44c-.2.56-.41,1.11-.63,1.66a7.52,7.52,0,0,1-.53.79v-2.2c0-7.31.15-14.61.07-21.92-.2-18-5-35-11.93-51.49a117.09,117.09,0,0,0-9.95-18.86c-.77-1.17-1.32-1.4-2.63-.71-9.14,4.78-18.34,9.47-27.53,14.19C143.68,473,143.58,472.81,143.67,472.46Z" transform="translate(-84.71 -415.99)"/><path class="cls-5" d="M708.43,546.79c-3.84-.17-8.41.21-13-.39-8.15-1.06-13.4-5.52-14.36-13.7a45.11,45.11,0,0,1,6.37-29.25c3.72-6.12,9.69-8.81,16.59-9.48,8.71-.84,17.45-.28,26.18-.44,1.71,0,1.75.8,1.43,2.08-1.18,4.78-5.88,8.35-11.41,8.52-4.4.14-8.8,0-13.16.86a11.83,11.83,0,0,0-9,7.41,44.9,44.9,0,0,0-3.4,14.26c-.43,5.52,1.83,8.18,7.34,9,6.41,1,12.87.33,19.3.42,1.87,0,2.65.29,2,2.39a53.9,53.9,0,0,0-1.35,6.45,2,2,0,0,1-2.38,1.9C716.11,546.7,712.63,546.79,708.43,546.79Z" transform="translate(-84.71 -415.99)"/><path class="cls-3" d="M513,546.78c-5.6,0-11.19,0-16.79,0s-7.89-2.75-6.8-8.09c3-14.5,6.12-29,9.14-43.46.26-1.26.78-1.68,2-1.66,3.3.06,6.61.13,9.91,0,2-.09,2,.75,1.66,2.28-2.59,12-5.12,24-7.67,36-.76,3.57-.19,4.31,3.38,4.32,8.14,0,16.27,0,24.41,0,1.67,0,2.29.3,1.77,2.1a56.44,56.44,0,0,0-1.37,6.45c-.26,1.59-.87,2.22-2.62,2.18C524.35,546.7,518.67,546.78,513,546.78Z" transform="translate(-84.71 -415.99)"/><path class="cls-3" d="M464.13,546.78c-5.51,0-11,0-16.53,0-5.68,0-8.1-2.92-6.93-8.49,3-14.33,6.08-28.64,9.09-43a1.87,1.87,0,0,1,2.22-1.76c3.14.09,6.28.16,9.41,0,2-.12,2.44.47,2,2.41-2.33,10.58-4.55,21.18-6.81,31.77-.34,1.57-.68,3.14-1,4.72-.55,2.89.09,3.67,3.11,3.68,8.14,0,16.28.08,24.42,0,2,0,2.7.39,2.09,2.45a33,33,0,0,0-1.3,5.94c-.21,2-1.22,2.37-3,2.34C475.32,546.72,469.72,546.78,464.13,546.78Z" transform="translate(-84.71 -415.99)"/><path class="cls-6" d="M281.35,496a100,100,0,0,1-5.08,20c-15.34,42.29-44.2,70.62-87.25,84.22a39.78,39.78,0,0,1-8.79,2c4.09-1.69,8.24-3.2,12.25-5,44-20.22,73.7-53.16,88-99.62L281,496A.22.22,0,0,1,281.35,496Z" transform="translate(-84.71 -415.99)"/><path class="cls-5" d="M316,467.37l-16.71-7.91c-.32-.15-.64-.28-1.35-.58.62,6.69,1.21,13.11,1.8,19.52a2.39,2.39,0,0,0,1.46-.64c2.69-1.82,2.69-1.82,4.62.88,2.24,3.14,2.24,3.14-.89,5.31l-9.62,6.71c-1.28-13.72-2.53-27.19-3.82-41.05l37.26,17.67c-4.13,2.9-8.11,5.67-12.06,8.46-.69.49-.94,0-1.25-.43-1-1.41-1.94-2.85-3-4.23-.49-.65-.36-1,.27-1.4C313.76,469,314.74,468.26,316,467.37Z" transform="translate(-84.71 -415.99)"/><path class="cls-3" d="M423.55,546.88c-2.11-.1-5,.59-6.1-.52s.34-3.94.76-6c3.13-14.88,6.37-29.75,9.48-44.64.34-1.66.88-2.28,2.6-2.21,3.13.13,6.27.1,9.4,0,1.54,0,2.15.28,1.78,2q-5.36,24.78-10.58,49.59c-.26,1.22-.73,1.74-2,1.67-1.78-.09-3.56,0-5.34,0Z" transform="translate(-84.71 -415.99)"/><path class="cls-3" d="M536.35,546.78c1.55-7.4,3-14.58,4.57-21.76,2-9.59,4.13-19.17,6.08-28.78.4-2,1-2.89,3.25-2.72,3.12.24,6.26.09,9.4,0,1.2,0,1.65.25,1.36,1.6q-5.4,25-10.7,50.1c-.17.83-.35,1.57-1.56,1.55C544.7,546.73,540.64,546.78,536.35,546.78Z" transform="translate(-84.71 -415.99)"/><path d="M730.66,582.47c0-4.15.05-8.31,0-12.46,0-2,.2-3.75,2.48-4.4a4.53,4.53,0,0,1,5.5,2c2.88,4.49,5.66,9,8.49,13.56,2.07,3.31,4.12,6.62,6.23,9.89.47.72.72,2.09,1.81,1.76.91-.27.43-1.51.43-2.3,0-7.54.07-15.09,0-22.63,0-1.73.4-2.31,2.23-2.33s2,.88,2,2.31q-.07,12.72,0,25.43c0,2.14,0,4.24-2.58,4.89s-4.35-.37-5.72-2.63c-4-6.57-8.16-13.07-12.25-19.6-.77-1.22-1.52-2.45-2.31-3.65-.41-.61-.69-1.64-1.56-1.43s-.51,1.3-.52,2c0,7.63-.08,15.26,0,22.89,0,1.9-.48,2.51-2.41,2.42-1.54-.07-1.8-.68-1.79-2C730.7,591.62,730.66,587.05,730.66,582.47Z" transform="translate(-84.71 -415.99)"/><path d="M785.05,598.15c-3,0-5.94,0-8.9,0-1.36,0-1.74-.49-1.74-1.78s.33-1.8,1.71-1.78c5.09.06,10.17,0,15.25,0,2.31,0,4-.49,4.47-3,.53-3.11-.35-4.94-3.06-5.88-4.39-1.53-8.84-2.89-13.24-4.4-3.81-1.32-5.45-3.55-5.55-7.29-.15-5.92,2.23-8.35,8.21-8.36,4.91,0,9.83,0,14.74,0,1.39,0,1.94.33,1.95,1.83s-.66,1.8-2,1.78c-4.75-.06-9.49,0-14.24,0-1.94,0-3.57.31-4.07,2.53-.67,3,0,5,2.51,5.92,3.64,1.36,7.36,2.51,11,3.76,1,.35,2.09.67,3.1,1.1,4.16,1.74,5.71,4.43,5.14,8.81-.63,4.95-2.71,6.79-7.71,6.81Z" transform="translate(-84.71 -415.99)"/><path d="M471.78,598.15c-2.88,0-5.77-.06-8.64,0-1.47,0-1.9-.5-1.9-1.92s.66-1.65,1.87-1.64c5.08,0,10.17-.06,15.26,0,2.29.05,3.77-.73,4.29-3,.61-2.7-.36-4.9-2.83-5.79q-6.45-2.34-13-4.36c-5.78-1.79-6.68-5.54-5.7-11,.53-3,2.75-4.67,6.11-4.77,5.59-.17,11.18,0,16.78-.09,1.35,0,1.46.68,1.49,1.74s-.16,1.89-1.63,1.86c-4.75-.07-9.5,0-14.24,0-2.34,0-4,.56-4.41,3.12s.44,4.59,2.91,5.46c4.22,1.49,8.51,2.81,12.74,4.28,5.95,2,7.25,5.38,5.8,11.54-.71,3-2.81,4.43-6.25,4.52C477.55,598.21,474.66,598.15,471.78,598.15Z" transform="translate(-84.71 -415.99)"/><path d="M609.61,578.33c0,3.13,0,6.27,0,9.41-.09,5.9-2.49,8.93-8.23,10.21a22.68,22.68,0,0,1-9.6.07c-6-1.21-8.51-4.32-8.58-10.47-.07-6.61,0-13.22-.06-19.83,0-1.76.63-2.12,2.21-2.09s2.3.19,2.26,2c-.11,6.44-.05,12.88,0,19.33,0,5.34,1.58,7.13,6.83,7.93a15.31,15.31,0,0,0,6.53-.52c3-.87,4.45-3.28,4.48-7.43,0-6.36.07-12.72,0-19.08,0-1.77.47-2.27,2.26-2.29s2,.82,2,2.29C609.57,571.38,609.61,574.85,609.61,578.33Z" transform="translate(-84.71 -415.99)"/><path d="M637.27,565.68c4.32,0,8.65,0,13,0,1.24,0,2.28-.14,2.29,1.73s-.82,1.89-2.18,1.86c-3-.06-5.94.06-8.9,0-1.6-.07-2,.52-2,2,.06,8.14,0,16.27.06,24.41,0,1.75-.27,2.59-2.32,2.58s-2.13-1-2.12-2.52c0-8.05-.05-16.1.07-24.15,0-2-.59-2.45-2.45-2.36-3,.15-5.93,0-8.89.06-1.39,0-1.72-.53-1.71-1.79s.27-1.84,1.68-1.82C628.29,565.72,632.78,565.68,637.27,565.68Z" transform="translate(-84.71 -415.99)"/><path d="M547.45,580.82c0-4.41.08-8.82,0-13.23,0-1.64.56-2,2.05-2s2.27.24,2.25,2c-.1,7.89-.05,15.77,0,23.66,0,3.11.18,3.28,3.33,3.29,4.92,0,9.84,0,14.76,0,1.22,0,2.11,0,2.07,1.69,0,1.49-.61,1.87-2,1.86-6,0-12.05,0-18.07,0-3.23,0-4.31-1.27-4.32-4.6C547.44,589.3,547.45,585.06,547.45,580.82Z" transform="translate(-84.71 -415.99)"/><path d="M665,582c0-4.58,0-9.15,0-13.73,0-1.57-.06-2.64,2.17-2.64,2.39,0,2,1.34,2,2.75q0,13.62,0,27.22c0,1.57.07,2.67-2.16,2.68-2.4,0-2-1.38-2-2.8Z" transform="translate(-84.71 -415.99)"/><path class="cls-7" d="M179.41,602.44c-.62.65-1.1.5-1.77.41A2.43,2.43,0,0,1,179.41,602.44Z" transform="translate(-84.71 -415.99)"/><path class="cls-8" d="M281.35,496H281c.12-.59.24-1.17.37-1.76.09-.13.19-.15.31,0C281.65,494.83,281.79,495.47,281.35,496Z" transform="translate(-84.71 -415.99)"/><path class="cls-9" d="M281.68,494.21a1.65,1.65,0,0,1-.31,0c.1-.59.21-1.19.32-1.78q.13-.24.33,0C282,493,282.27,493.71,281.68,494.21Z" transform="translate(-84.71 -415.99)"/><path class="cls-10" d="M143.67,472.46l.38.39a2,2,0,0,1-1.19.64C142.77,472.84,143.3,472.71,143.67,472.46Z" transform="translate(-84.71 -415.99)"/><path class="cls-11" d="M119.45,607.62a2.81,2.81,0,0,0,0,.29H117.7A2.61,2.61,0,0,1,119.45,607.62Z" transform="translate(-84.71 -415.99)"/><path class="cls-12" d="M282,492.44a1.84,1.84,0,0,0-.33,0c.15-.38.29-.75.45-1.14C282.54,491.78,282.4,492.12,282,492.44Z" transform="translate(-84.71 -415.99)"/><path class="cls-3" d="M405.46,493.64c-8.82-.2-17.64-.14-26.45,0-5.8.08-8.49,2.42-9.71,8.07-1.74,8-3.35,16.07-5.15,24.07-.94,4.16-1.32,8.46-3,12.43v.51c.68,1.32-.12,2.8.46,4.13.84,3,3.18,3.89,5.86,3.9,10.17.08,20.35.2,30.51-.05,8.28-.2,11.82-3.24,14.22-11.22.19-.65.35-1.3.52-2a16.76,16.76,0,0,0,.25-8.29c-.76-3-3-4.67-5.91-5.6,5.19-.89,8.21-3.82,9.36-8.7a25.65,25.65,0,0,0,.65-4.52C417.46,498.3,413.52,493.82,405.46,493.64Zm-6.21,36.21c-.66,4.57-2.56,6.4-7.17,6.54-4.23.13-8.46.1-12.68,0-3.06-.06-3.46-.67-3-3.76,1.16-7.72,1.16-7.72,8.92-7.72h2.28c2.54,0,5.07-.06,7.61,0C398.54,525,399.73,526.54,399.25,529.85Zm3.88-21.6c-.56,4.94-2.47,6.69-7.4,6.73-2.12,0-4.23,0-6.35,0-2.45,0-4.91-.09-7.36,0-1.62.08-1.86-.57-1.52-1.93.53-2.13,1-4.28,1.47-6.42a3,3,0,0,1,3.22-2.64c4.82,0,9.65-.08,14.48,0C402.34,504.13,403.43,505.61,403.13,508.25Z" transform="translate(-84.71 -415.99)"/><path class="cls-13" d="M213.55,497.57a2.93,2.93,0,0,1-1.29-2.19c-.77-6.16-3-11.9-4.76-17.81-2.85-9.8-6.08-19.45-11-28.46-2-3.75-4-7.56-6.05-11.29-.77-1.39-.61-2.06,1-2.39,6.44-1.26,12.92-2.26,19.41-3.22q9.38-1.41,18.78-2.7c5.73-.8,11.48-1.54,17.22-2.31,5.91-.78,11.83-1.57,17.75-2.33,4.4-.56,8.81-1.06,13.21-1.58.35-.05.71,0,1.06-.06,3.5-.51,4.08.13,3.44,3.67a1.12,1.12,0,0,1-1,1c-6.37,1.33-12.78,2.39-19.23,3.24-6.26.82-12.51,1.81-18.77,2.69q-9.74,1.37-19.5,2.63c-6.39.84-12.78,1.62-19.17,2.41-.77.09-1.54.08-2.32.1-1.44,0-1.77.62-1.29,2,2,5.77,3.82,11.58,5.71,17.38a137.23,137.23,0,0,1,6.36,27.79A74.11,74.11,0,0,1,213.55,497.57Z" transform="translate(-84.71 -415.99)"/><path class="cls-5" d="M782.68,541.15c0-.09,0-.17,0-.26Q778.34,520,774,499.14a6.84,6.84,0,0,0-6.09-5.89c-7-1.21-11.46.72-15.28,6.8l-15.94,25.41c-4.36,6.94-8.71,13.89-13.37,21.33,4.71,0,8.85-.07,13,0a3,3,0,0,0,3-1.72c1.68-3,3.55-5.78,5.2-8.74a3.13,3.13,0,0,1,3.23-1.78c5.17.09,10.34,0,15.52,0,4.86,0,4.86,0,5.63,4.86,1.15,7.32,1.15,7.32,8.43,7.32h.51C783.76,546.79,783.76,546.79,782.68,541.15ZM761,524.35h-8.12c-1,0-1.58-.18-.89-1.29q5.19-8.4,10.41-16.8c.11-.18.43-.23,1-.49.83,4.24,1.64,8.35,2.44,12.46,0,.17,0,.34.07.51C766.85,524.35,766.85,524.35,761,524.35Z" transform="translate(-84.71 -415.99)"/><path d="M532.69,582c0-1.27.07-2.55,0-3.81-.47-7.24-3.38-10.92-9.93-12.24a30,30,0,0,0-13.58.36,9.8,9.8,0,0,0-7.51,7.18,31.32,31.32,0,0,0,0,16.8,9.92,9.92,0,0,0,7.9,7.43,33.9,33.9,0,0,0,13.61.15c5.1-1,8-4,9.06-9.05A26.5,26.5,0,0,0,532.69,582Zm-5.1,6.95a7.18,7.18,0,0,1-5.66,5.53,22.36,22.36,0,0,1-10.54,0c-4.25-1-5.61-4.25-6.12-8.07-.19-1.5-.15-3-.22-4.55h.05v-.5c0-11.07,9-16.3,18.95-11.11a6.71,6.71,0,0,1,3.46,4.46A27.83,27.83,0,0,1,527.59,588.91Z" transform="translate(-84.71 -415.99)"/><path d="M715.25,574.68c-.88-4.1-3.15-7.1-7.36-8.26a29.59,29.59,0,0,0-16,0,9.82,9.82,0,0,0-7.06,7,28.32,28.32,0,0,0-1,9.55c.42,11.69,4.28,15.41,15.92,15.3,1.35,0,2.72.09,4.06,0,6.5-.48,10.11-3.33,11.48-9.2A32.72,32.72,0,0,0,715.25,574.68ZM710.8,588.8a7.3,7.3,0,0,1-5.61,5.6,21.94,21.94,0,0,1-10.77,0,7,7,0,0,1-5.44-5.43,28.24,28.24,0,0,1,0-14,7.22,7.22,0,0,1,5.89-5.59,22.34,22.34,0,0,1,10.06,0c3.86.87,6,3.61,6.4,8.39.14,1.43.14,2.87.21,4.3A27.22,27.22,0,0,1,710.8,588.8Z" transform="translate(-84.71 -415.99)"/></svg>